<svg id="visual" viewBox="0 0 900 300" width="900" height="300" xmlns="http://www.w3.org/2000/svg" xmlns:xlink="http://www.w3.org/1999/xlink" version="1.1">
<rect x="0" y="0" width="900" height="300" fill="#766153"></rect>
<path d="M0 126L18.8 131.7C37.7 137.3 75.3 148.7 112.8 159.8C150.3 171 187.7 182 225.2 184.8C262.7 187.7 300.3 182.3 337.8 180.5C375.3 178.7 412.7 180.3 450.2 176.8C487.7 173.3 525.3 164.7 562.8 160.2C600.3 155.7 637.7 155.3 675.2 147.7C712.7 140 750.3 125 787.8 123.3C825.3 121.7 862.7 133.3 881.3 139.2L900 145L900 0L881.3 0C862.7 0 825.3 0 787.8 0C750.3 0 712.7 0 675.2 0C637.7 0 600.3 0 562.8 0C525.3 0 487.7 0 450.2 0C412.7 0 375.3 0 337.8 0C300.3 0 262.7 0 225.2 0C187.7 0 150.3 0 112.8 0C75.3 0 37.7 0 18.8 0L0 0Z" fill="#efebce"></path>
<path d="M0 115L18.8 107C37.7 99 75.3 83 112.8 83.2C150.3 83.3 187.7 99.7 225.2 108.8C262.7 118 300.3 120 337.8 114.8C375.3 109.7 412.7 97.3 450.2 90.7C487.7 84 525.3 83 562.8 92.2C600.3 101.3 637.7 120.7 675.2 125.8C712.7 131 750.3 122 787.8 118.5C825.3 115 862.7 117 881.3 118L900 119L900 0L881.3 0C862.7 0 825.3 0 787.8 0C750.3 0 712.7 0 675.2 0C637.7 0 600.3 0 562.8 0C525.3 0 487.7 0 450.2 0C412.7 0 375.3 0 337.8 0C300.3 0 262.7 0 225.2 0C187.7 0 150.3 0 112.8 0C75.3 0 37.7 0 18.8 0L0 0Z" fill="#d6ce93"></path>
<path d="M0 86L18.8 83.7C37.7 81.3 75.3 76.7 112.8 68.8C150.3 61 187.7 50 225.2 44.5C262.7 39 300.3 39 337.8 45C375.3 51 412.7 63 450.2 62C487.7 61 525.3 47 562.8 41.7C600.3 36.3 637.7 39.7 675.2 48.3C712.7 57 750.3 71 787.8 77.3C825.3 83.7 862.7 82.3 881.3 81.7L900 81L900 0L881.3 0C862.7 0 825.3 0 787.8 0C750.3 0 712.7 0 675.2 0C637.7 0 600.3 0 562.8 0C525.3 0 487.7 0 450.2 0C412.7 0 375.3 0 337.8 0C300.3 0 262.7 0 225.2 0C187.7 0 150.3 0 112.8 0C75.3 0 37.7 0 18.8 0L0 0Z" fill="#a3a380"></path>
</svg>